<?xml version="1.0" standalone="yes"?>
<svg xmlns="http://www.w3.org/2000/svg" width="300" height="186">
<path style="fill:#ffffff; stroke:none;" d="M0 0L0 186L300 186L300 0L0 0z"/>
<path style="fill:#cbe0f5; stroke:none;" d="M180 21L179 26C181.29 24.4638 182.162 23.6133 183 21L180 21z"/>
<path style="fill:#b7d3e9; stroke:none;" d="M176.667 22.3333C176.222 22.7778 177.278 22.7222 177.333 22.6667C177.778 22.2222 176.722 22.2778 176.667 22.3333z"/>
<path style="fill:#94c0db; stroke:none;" d="M163 31L158 31C166.476 35.0401 176.503 29.3638 181 22C175.264 22.7889 164.987 25.0456 163 31z"/>
<path style="fill:#d6e8f6; stroke:none;" d="M171 23C172.248 23.6848 172.548 23.7488 174 24C172.752 23.3152 172.452 23.2512 171 23z"/>
<path style="fill:#aec8e1; stroke:none;" d="M141 32C142.506 32.683 143.315 32.8259 145 33C141.744 34.9934 139.667 36.1162 139 40C133.485 40.1803 129.95 42.7941 128 48C131.495 46.9152 135.71 45.4301 138.542 43.0239C140.254 41.5695 140.582 39.0282 142.508 37.8426C145.537 35.9772 150.532 35.7154 154 35C152.231 34.2211 150.964 34.0876 149 34C153.504 32.4724 158.254 31.3876 163 31C165.256 26.9295 168.691 26.154 173 25C169.667 23.8078 166.4 25.0302 163 25.7932C155.735 27.4237 147.733 28.858 141 32z"/>
<path style="fill:#d2e3f7; stroke:none;" d="M177 26L177 28C178.635 27.455 178.455 27.6351 179 26L177 26z"/>
<path style="fill:#d0dded; stroke:none;" d="M152 28C153.943 28.6218 154.949 28.4358 157 28C155.057 27.3782 154.051 27.5642 152 28z"/>
<path style="fill:#bbd7e3; stroke:none;" d="M170 30C173.167 31.8377 174.749 30.6418 177 28L170 30z"/>
<path style="fill:#bdd2e7; stroke:none;" d="M105 56C108.782 53.6839 111.644 53.056 116 54C119.087 50.9193 122.849 51.0503 126.215 48.6906C131.101 45.2659 132.395 40.4983 139 40C140.067 36.5789 141.773 35.4641 145 34C143.494 33.317 142.685 33.1741 141 33L143 32C140.124 31.0022 137.937 32.023 135 32.6397C131.666 33.3396 128.063 33.3227 125 34.9884C120.377 37.5025 116.783 42.2899 113.04 45.9066C109.81 49.0274 106.224 51.5612 105 56z"/>
<path style="fill:#88b8de; stroke:none;" d="M155 34C155.65 35.2997 155.147 35 157 35L153 36C154.769 36.7789 156.036 36.9124 158 37L152 41C155.955 42.6165 159.453 39.5618 163 42L172 31C166.109 32.4393 161.245 34.0793 155 34z"/>
<path style="fill:#f3f5f4; stroke:none;" d="M174 31L173 32C174.715 35.9635 175.273 40.5279 179 43C177.489 38.9474 176.744 34.348 174 31z"/>
<path style="fill:#a3c5d1; stroke:none;" d="M149 33C153.495 35.1072 158.324 34.1489 163 33C158.539 31.1287 153.679 32.6308 149 33z"/>
<path style="fill:#6e9fbf; stroke:none;" d="M162 33C164.46 33.8882 166.415 33.4666 169 33C166.54 32.1118 164.585 32.5334 162 33z"/>
<path style="fill:#cbe6f7; stroke:none;" d="M170 35C171.457 33.8966 171.897 33.4566 173 32C170.876 32.8993 170.899 32.8764 170 35z"/>
<path style="fill:#6b9fb4; stroke:none;" d="M158.667 34.3333C158.222 34.7778 159.278 34.7222 159.333 34.6667C159.778 34.2222 158.722 34.2778 158.667 34.3333z"/>
<path style="fill:#b1d0ed; stroke:none;" d="M167 37C168.457 35.8966 168.897 35.4567 170 34C167.876 34.8993 167.899 34.8764 167 37z"/>
<path style="fill:#7faaba; stroke:none;" d="M145 37C148.846 38.3759 153.026 36.5351 157 36C153.029 34.3804 148.991 35.8785 145 37z"/>
<path style="fill:#98bee2; stroke:none;" d="M141 37C139.505 43.1126 135.363 44.4486 130 47C139.063 49.752 150.354 41.6757 158 38C152.345 35.628 146.523 39.4794 141 37z"/>
<path style="fill:#74a5c5; stroke:none;" d="M142 37C142.98 38.7833 142.908 38.5943 145 39C143.861 37.9846 143.388 37.6913 142 37z"/>
<path style="fill:#538493; stroke:none;" d="M143.667 37.3333C143.222 37.7778 144.278 37.7222 144.333 37.6667C144.778 37.2222 143.722 37.2777 143.667 37.3333z"/>
<path style="fill:#d3e8fb; stroke:none;" d="M164 41C165.752 39.6698 166.67 38.7525 168 37C165.751 38.1536 165.154 38.7511 164 41z"/>
<path style="fill:#6da6db; stroke:none;" d="M158 40C159.769 40.7789 161.036 40.9124 163 41C161.231 40.2211 159.964 40.0876 158 40z"/>
<path style="fill:#3387cd; stroke:none;" d="M152 43C153.248 43.6848 153.548 43.7488 155 44C152.235 47.971 149.779 52.5673 145 54C144.816 56.1107 144.762 57.9052 145 60C148.851 58.1011 153.659 53.2962 155.992 49.6759C158.408 45.9286 158.392 43.6191 163 42C159.326 40.5666 155.689 41.9633 152 43z"/>
<path style="fill:#4c8cc9; stroke:none;" d="M130 48C136.754 50.7545 147.692 45.8073 154 43C147.378 41.0409 136.792 46.5981 130 48z"/>
<path style="fill:#a2c9f0; stroke:none;" d="M160 42L161 52C166.125 49.1811 160.823 45.9227 163 43C161.752 42.3152 161.452 42.2512 160 42z"/>
<path style="fill:#c4dbed; stroke:none;" d="M161 43C162.206 45.3649 163.364 47.4202 164 50C166.119 47.0802 165.501 45.1812 164 42L161 43z"/>
<path style="fill:#5a9fda; stroke:none;" d="M158 43C155.865 49.7352 154.31 54.9396 149 60C157.65 59.6219 161.068 50.311 158 43z"/>
<path style="fill:#72acdc; stroke:none;" d="M159 43L159 54C161.527 50.6123 160.775 46.6928 159 43z"/>
<path style="fill:#b8b7bc; stroke:none;" d="M177.667 43.3333C177.222 43.7778 178.278 43.7222 178.333 43.6667C178.778 43.2222 177.722 43.2778 177.667 43.3333z"/>
<path style="fill:#2671c4; stroke:none;" d="M151 44C150.338 47.6408 148.312 50.5573 147 54C150.651 51.8505 153.2 47.8181 155 44L151 44z"/>
<path style="fill:#dde1bc; stroke:none;" d="M178 44C178.223 48.4201 179.34 60.0015 184 61C182.821 55.2863 181.93 48.4589 178 44z"/>
<path style="fill:#205bb5; stroke:none;" d="M147 45C147.598 46.1954 147.466 45.9774 149 47C142.811 50.6706 138.074 51 131 51L131 53C140.847 53.7771 147.514 55.6573 152 45L147 45z"/>
<path style="fill:#154da4; stroke:none;" d="M131 49L131 51C137.977 51 144.275 51.9601 149 46C142.854 46.268 137.111 48.5008 131 49z"/>
<path style="fill:#edffff; stroke:none;" d="M166 47C161.433 53.2012 154.129 58.3343 148 63C153.132 63.6835 167.1 52.4219 166 47z"/>
<path style="fill:#92bfe6; stroke:none;" d="M126 48C127.506 48.683 128.315 48.8259 130 49C128.494 48.317 127.685 48.1741 126 48z"/>
<path style="fill:#d2efff; stroke:none;" d="M16 49C20.9691 51.0851 27.6497 50 33 50L68 50C63.0309 47.9149 56.3503 49 51 49L16 49z"/>
<path style="fill:#6597bc; stroke:none;" d="M123 50C125.573 50.9995 128.231 50.8283 131 51C128.788 48.5064 126.094 49.4339 123 50z"/>
<path style="fill:#65a6d0; stroke:none;" d="M16 50L16 61L32 61C27.5286 59.1237 21.8166 60 17 60L17 51C34.2242 51 50.7537 53 68 53L68 50L16 50z"/>
<path style="fill:#7daacb; stroke:none;" d="M116 52C118.954 53.0508 121.1 52.4976 123 50C120.531 50.4264 118.355 51.1324 116 52z"/>
<path style="fill:#a7cce9; stroke:none;" d="M127.667 50.3333C127.222 50.7778 128.278 50.7222 128.333 50.6667C128.778 50.2222 127.722 50.2778 127.667 50.3333z"/>
<path style="fill:#59abdd; stroke:none;" d="M17 51L17 60C20.911 60 28.3805 58.5873 31.3966 61.6034C34.1305 64.3373 33 70.4969 33 74L33 106L51 106L51 104L42 104L42 98L50 98L50 96L42 96L42 91L51 91L51 88L42 88L42 74L38 74C39.2228 72.8048 39.42 72.6836 41 72C41.8904 64.955 42 58.1026 42 51L17 51z"/>
<path style="fill:#c0e0f7; stroke:none;" d="M123 51C124.248 51.6848 124.548 51.7488 126 52C124.752 51.3152 124.452 51.2512 123 51z"/>
<path style="fill:#93b3e2; stroke:none;" d="M130.333 51.6667C130.278 51.7222 130.222 52.7778 130.667 52.3333C130.722 52.2778 130.778 51.2222 130.333 51.6667z"/>
<path style="fill:#3c8fd1; stroke:none;" d="M145 60C142.145 54.9115 138.408 55.0042 133 55C137.303 57.2649 141.536 58.5114 144 63C147.298 62.7454 149.066 62.5151 149 59C152.865 57.6928 154.474 54.6641 156 51C151.227 52.9037 149.023 57.0427 145 60z"/>
<path style="fill:#e9edca; stroke:none;" d="M182 51C182.283 54.4579 183.062 57.664 184 61C185.409 57.3808 184.259 54.0359 182 51z"/>
<path style="fill:#93b9d0; stroke:none;" d="M106 56C108.436 55.4928 110.674 54.8804 113 54C110.046 52.9492 107.9 53.5024 106 56z"/>
<path style="fill:#739ebe; stroke:none;" d="M113.667 53.3333C113.222 53.7778 114.278 53.7222 114.333 53.6667C114.778 53.2222 113.722 53.2778 113.667 53.3333z"/>
<path style="fill:#7ea9d6; stroke:none;" d="M131.333 53.6667C131.278 53.7222 131.222 54.7778 131.667 54.3333C131.722 54.2778 131.778 53.2222 131.333 53.6667z"/>
<path style="fill:#247dd1; stroke:none;" d="M132 53L132 55C137.036 55.0039 140.544 55.5487 145 58L145 54L132 53z"/>
<path style="fill:#a8c7e4; stroke:none;" d="M131 55C131.378 57.5507 131.988 59.627 133 62C133.797 59.111 132.836 57.3082 131 55z"/>
<path style="fill:#77acd8; stroke:none;" d="M132.333 55.6667C132.278 55.7222 132.222 56.7778 132.667 56.3333C132.722 56.2778 132.778 55.2222 132.333 55.6667z"/>
<path style="fill:#5da3de; stroke:none;" d="M133 56L133 58L138 58L138 56L133 56z"/>
<path style="fill:#9bc8df; stroke:none;" d="M42 57C49.1686 60.0081 60.239 58 68 58C60.8314 54.9919 49.761 57 42 57z"/>
<path style="fill:#68a7d2; stroke:none;" d="M42 58L42 60L68 60L68 58L42 58z"/>
<path style="fill:#7fb4e0; stroke:none;" d="M133 58C134.764 64.4466 137.391 65.8585 144 66C139.957 62.091 139.189 58.2058 133 58z"/>
<path style="fill:#549ad8; stroke:none;" d="M139 58C140.217 63.0044 141.678 65.1212 147 64C144.433 61.5552 142.311 59.3578 139 58z"/>
<path style="fill:#c7e3f8; stroke:none;" d="M42 60C49.1686 63.0081 60.239 61 68 61C60.8314 57.9919 49.7609 60 42 60z"/>
<path style="fill:#fffeff; stroke:none;" d="M42 61L42 65L52 65C49.8881 68.83 47.1605 68.9508 43 69L43 72C47.1605 72.0492 49.8881 72.17 52 76L42 76L42 80C46.4205 80.0156 49.7111 79.8492 52 84L42 84L42 88L52 88L52 92L42 92L42 95C46.7829 95.0169 50.4525 94.9025 52 100L43 100C45.3734 103.665 49.7609 102.939 52 107L34 107L34 110C37.177 110.414 39.8998 112.211 43.0355 112.56C46.4844 112.944 50.6397 111.767 54 111C55.8683 114.243 61.1759 113.846 62 110C65.4348 110.634 68.5405 110.233 72 110L68 111C71.7663 112.521 75.1854 110.783 79 110C74.0268 107.605 67.5184 107.564 63.973 102.621C61.1929 98.745 58.1758 91.8055 58.2639 87C58.7014 63.1243 93.5133 57.1379 98 82C100.356 78.3195 101.72 74.3633 102 70C100.1 71.0648 98.673 72.554 97 74C96.2351 71.5444 95.9214 69.5685 96 67L89 67L94 65C90.6591 63.5986 87.1213 64.3113 83.5756 63.7145C78.8205 62.9141 73.7212 60.8203 69 60.5486C60.1838 60.0413 50.8838 61 42 61z"/>
<path style="fill:#9dc6e4; stroke:none;" d="M151 60L152 61L151 60z"/>
<path style="fill:#e0ffff; stroke:none;" d="M16 61C20.7238 62.9822 26.9098 62 32 62C27.2762 60.0178 21.0902 61 16 61z"/>
<path style="fill:#9dd0ed; stroke:none;" d="M32 61L32 107L36 107C34.7516 106.315 34.4516 106.251 33 106L33 76C33 71.1913 33.8752 65.4687 32 61z"/>
<path style="fill:#a8d0ea; stroke:none;" d="M150 61L151 62L150 61z"/>
<path style="fill:#fcfffd; stroke:none;" d="M152 63C145.292 64.6904 141.485 68.2619 135 64L131 67C136.917 70.7632 140.011 74.7296 143 81C139.306 81.8795 135.786 81.9975 132 82C130.075 75.2219 120.941 72.0917 115.419 77.4336C108.721 83.9129 112.349 97.5272 122 97.9514C128.051 98.2173 128.01 94.6933 132.299 92.027C135.384 90.1087 139.741 91.2242 143 92C141.165 96.3769 138.58 100.047 136 104L144 100L143 97C144.613 98.9023 145.953 100.623 148 102C147.149 99.327 146.41 96.7745 146 94L155 94C156.165 97.9243 158.632 100.089 162.996 99.6512C165.739 99.3761 169.924 97.7347 169.029 94.2052C167.644 88.7399 155.258 89.3134 151.213 86.1458C144.793 81.1178 145.836 73.2491 152.043 68.6489C156.196 65.5709 161.012 65.0418 166 65C163.85 63.9952 161.882 63.4697 160 62C156.981 63.1514 154.901 64.6131 152 63z"/>
<path style="fill:#c0dae7; stroke:none;" d="M267 62L270 65C270.951 62.4934 269.348 62.2942 267 62z"/>
<path style="fill:#8dbedf; stroke:none;" d="M147 63L148 64L147 63z"/>
<path style="fill:#9ab0be; stroke:none;" d="M267 63L268 64L267 63z"/>
<path style="fill:#d5f5ff; stroke:none;" d="M268.667 63.3333C268.222 63.7779 269.278 63.7222 269.333 63.6667C269.778 63.2223 268.722 63.2777 268.667 63.3333z"/>
<path style="fill:#8ea5b3; stroke:none;" d="M271 63L272 64L271 63z"/>
<path style="fill:#adcfea; stroke:none;" d="M145.667 64.3333C145.222 64.7777 146.278 64.7223 146.333 64.6667C146.778 64.2222 145.722 64.2778 145.667 64.3333z"/>
<path style="fill:#97b3c1; stroke:none;" d="M266 64L266 68C266.71 66.2405 266.71 65.7595 266 64z"/>
<path style="fill:#d2fcff; stroke:none;" d="M267 64L267 68C267.71 66.2405 267.71 65.7595 267 64z"/>
<path style="fill:#79b2d0; stroke:none;" d="M268 64L268 68C268.911 66.6235 269.404 65.5601 270 64L268 64z"/>
<path style="fill:#e6ffff; stroke:none;" d="M271 64L271 68C271.71 66.2405 271.71 65.7595 271 64z"/>
<path style="fill:#96b3bb; stroke:none;" d="M272 64L272 68C272.71 66.2405 272.71 65.7595 272 64z"/>
<path style="fill:#66a9d4; stroke:none;" d="M42 65L42 68L51 68L51 65L42 65z"/>
<path style="fill:#a3c7df; stroke:none;" d="M51 65L51 68C51.6961 66.4463 51.6961 66.5537 51 65z"/>
<path style="fill:#97c3de; stroke:none;" d="M75 65C77.3316 65.9845 79.4566 65.9813 82 66C79.6685 65.0155 77.5433 65.0187 75 65z"/>
<path style="fill:#94c6e1; stroke:none;" d="M119 65C121.332 65.9845 123.457 65.9813 126 66C123.668 65.0155 121.543 65.0187 119 65z"/>
<path style="fill:#b5d0eb; stroke:none;" d="M136.667 65.3333C136.222 65.7777 137.278 65.7223 137.333 65.6667C137.778 65.2222 136.722 65.2778 136.667 65.3333z"/>
<path style="fill:#c8e8ff; stroke:none;" d="M144.667 65.3333C144.222 65.7777 145.278 65.7223 145.333 65.6667C145.778 65.2222 144.722 65.2778 144.667 65.3333z"/>
<path style="fill:#94c3dd; stroke:none;" d="M158 65C160.613 66.0977 163.165 65.9928 166 66C163.387 64.9023 160.835 65.0072 158 65z"/>
<path style="fill:#93c5de; stroke:none;" d="M247 65C249.052 65.8742 250.747 65.9528 253 66C250.948 65.1257 249.253 65.0472 247 65z"/>
<path style="fill:#99ceed; stroke:none;" d="M269 65C269.684 66.5799 269.805 66.7773 271 68L271 65L269 65z"/>
<path style="fill:#97c7eb; stroke:none;" d="M71.6667 66.3333C71.2222 66.7778 72.2778 66.7222 72.3333 66.6667C72.7778 66.2222 71.7222 66.2778 71.6667 66.3333z"/>
<path style="fill:#58abdf; stroke:none;" d="M97 95C87.1207 95.0338 75.8035 105.741 69.3179 93.0208C68.4903 91.3977 68.2805 89.7659 68 88L98 88C97.9993 81.5142 97.9281 75.9587 92.8951 71.1435C80.8454 59.6155 60.2708 67.6371 59.0903 84C58.4813 92.4413 60.9887 100.943 69.0039 105C78.6281 109.872 95.1118 107.235 97 95z"/>
<path style="fill:#cbebff; stroke:none;" d="M85.6667 66.3333C85.2222 66.7778 86.2778 66.7222 86.3333 66.6667C86.7778 66.2222 85.7222 66.2778 85.6667 66.3333z"/>
<path style="fill:#88c0e3; stroke:none;" d="M115.667 66.3333C115.222 66.7778 116.278 66.7222 116.333 66.6667C116.778 66.2222 115.722 66.2778 115.667 66.3333z"/>
<path style="fill:#58abe1; stroke:none;" d="M142 92C139.046 92.0003 135.225 91.4024 132.594 93.0131C129.518 94.8964 127.935 98.1456 123.999 98.6667C113.138 100.104 111.001 86.5719 111 79C115.089 77.9399 118.7 74.272 123 74.267C129.339 74.2596 134.128 79.9234 141 80C140.011 66.8493 123.576 62.8802 113 67.6528C105.99 70.8159 101.994 78.5391 102.03 86C102.061 92.3882 107.285 101.662 113.325 104.415C124.281 109.408 140.585 105.025 142 92z"/>
<path style="fill:#bdeaff; stroke:none;" d="M129.667 66.3333C129.222 66.7777 130.278 66.7222 130.333 66.6667C130.778 66.2222 129.722 66.2778 129.667 66.3333z"/>
<path style="fill:#cce6f3; stroke:none;" d="M138 66C140.052 66.8742 141.747 66.9528 144 67C141.948 66.1258 140.253 66.0472 138 66z"/>
<path style="fill:#6ca3ca; stroke:none;" d="M149 72C155.798 68.2347 160.445 67.8923 168 67C161.649 64.335 152.336 65.5847 149 72z"/>
<path style="fill:#b1dbf4; stroke:none;" d="M168.667 66.3333C168.222 66.7777 169.278 66.7223 169.333 66.6667C169.778 66.2222 168.722 66.2778 168.667 66.3333z"/>
<path style="fill:#a9d2f0; stroke:none;" d="M184 66L184 97C187.411 88.8723 185 75.8136 185 67L194 67C190.837 65.6726 187.414 66.0004 184 66z"/>
<path style="fill:#afdff6; stroke:none;" d="M210 66L210 91C212.413 85.2497 212.413 71.7503 210 66z"/>
<path style="fill:#a1cde6; stroke:none;" d="M211 66C213.89 67.2129 216.874 66.9983 220 67C217.11 65.787 214.126 66.0017 211 66z"/>
<path style="fill:#d7f2ff; stroke:none;" d="M220 66L220 106C223.206 98.3606 221 86.2707 221 78C221 74.0172 221.552 69.6987 220 66z"/>
<path style="fill:#daf3ff; stroke:none;" d="M227 66L227 124C228.769 119.785 228 114.536 228 110L228 82C228 76.9198 228.981 70.7199 227 66z"/>
<path style="fill:#9dd0ed; stroke:none;" d="M228 66C230.89 67.2129 233.874 66.9983 237 67C234.11 65.787 231.126 66.0017 228 66z"/>
<path style="fill:#c7f0ff; stroke:none;" d="M237 66C237.168 68.4025 237.197 69.4602 239 71C238.449 69.1749 237.924 67.6481 237 66z"/>
<path style="fill:#58abdd; stroke:none;" d="M244 66C249.583 68.3436 256.102 68.581 262 71C259.726 72.9809 257.759 74.7756 255 76C258.79 83.2427 261.206 98.9176 248 98.6535C245.229 98.5982 242.51 97.0227 240 96L239 99L232 95C232 102.648 228.896 112.192 233 119C233.685 117.752 233.749 117.451 234 116L235 120C237.403 114.274 235.54 107.133 237 101L239 101C242.682 107.682 257.362 107.491 262.787 102.682C271.398 95.0488 270.25 75.1684 260.96 68.7029C256.034 65.275 249.682 66 244 66z"/>
<path style="fill:#b5dff5; stroke:none;" d="M256.667 66.3333C256.222 66.7779 257.278 66.7222 257.333 66.6667C257.778 66.2223 256.722 66.2777 256.667 66.3333z"/>
<path style="fill:#83abc5; stroke:none;" d="M86.6667 67.3333C86.2222 67.7778 87.2778 67.7222 87.3333 67.6667C87.7778 67.2222 86.7222 67.2778 86.6667 67.3333z"/>
<path style="fill:#56abe1; stroke:none;" d="M151 87C156.208 87.1219 163.476 88.1806 167.851 91.2284C172.306 94.3317 169.766 99.6677 164.995 100.642C159.73 101.717 157.802 97.3346 153.675 95.5988C151.37 94.6291 148.442 95.0019 146 95C147.649 105.383 154.882 106.977 164 106.074C170.807 105.4 178.448 102.897 178.89 95C179.473 84.6009 169.987 83.1807 162.039 81.8812C159.505 81.4669 155.14 79.5311 156.907 76.1883C160.273 69.8159 166.969 75.6726 171.168 76.6975C173.345 77.2289 175.778 76.9983 178 77C177.132 73.6741 175.929 70.6371 172.945 68.6034C167.247 64.719 152.853 66.4977 149.028 72.5177C146.188 76.9875 149.667 82.6666 151 87z"/>
<path style="fill:#65a9ce; stroke:none;" d="M185 67C185 77.59 182.349 92.3358 187 102C187.82 98.4108 186.207 94.6981 186.039 91C185.693 83.3624 186 75.6456 186 68L193 68L193 92C195.907 85.0721 194 74.497 194 67L185 67z"/>
<path style="fill:#69a7ce; stroke:none;" d="M211 67C211 76.0779 211.138 84.9919 210 94C215.202 86.3855 206.381 68.9627 219 68L219 106C220.661 102.041 220 97.2604 220 93L220 67L211 67z"/>
<path style="fill:#68a6cd; stroke:none;" d="M228 67L228 124L237 124L237 102C234.514 107.925 235.82 116.514 235 123L229 123L229 85C229 79.3809 230.189 72.2165 228 67z"/>
<path style="fill:#58a9e0; stroke:none;" d="M229 67L229 123L235 123L235 116L233 119C229.789 111.434 232 103.076 232 95C234.315 96.5208 236.439 97.9364 239 99C240.928 91.0874 233.856 84.5385 241.34 77.3943C246.806 72.1764 250.87 76.9533 256.674 75.436C258.971 74.8356 260.565 72.728 262 71C253.369 66.094 245.419 65.7039 237 71L237 67L229 67z"/>
<path style="fill:#d4ecf6; stroke:none;" d="M269 67C268.014 68.4785 268 68.2031 268 70L271 70C270.316 68.42 270.195 68.2228 269 67z"/>
<path style="fill:#67a5d4; stroke:none;" d="M41 68C40.5254 70.5699 39.0861 71.7749 38 74C42.3769 74.5532 46.5776 74.9971 51 75C48.1145 73.4654 45.2519 73.1415 42 73C41.9124 71.0359 41.7789 69.7691 41 68z"/>
<path style="fill:#e6fdff; stroke:none;" d="M42 68L42 73L51 73C48.3873 71.9023 45.8355 72.0072 43 72L43 69L51 69C48.1103 67.7871 45.1259 68.0017 42 68z"/>
<path style="fill:#58abdf; stroke:none;" d="M186 68C186 80.9028 181.297 113.366 203.998 106.349C206.748 105.499 208.818 103.786 211 102L211 106L219 106L219 68C216.244 68.0905 213.256 67.9816 212.318 71.1481C210.278 78.0324 214.415 86.5744 210.258 92.9599C205.439 100.362 197.828 99.2033 194.148 91.5756C192.584 88.3328 193 84.497 193 81L193 68L186 68z"/>
<path style="fill:#7c9cb1; stroke:none;" d="M267 68L268 69L267 68z"/>
<path style="fill:#88a4af; stroke:none;" d="M271 68L272 69L271 68z"/>
<path style="fill:#a8d4ed; stroke:none;" d="M66 69L67 70L66 69z"/>
<path style="fill:#accfe3; stroke:none;" d="M93 71L94 72L93 71z"/>
<path style="fill:#b0d9ef; stroke:none;" d="M148 71L149 72L148 71z"/>
<path style="fill:#abd3ec; stroke:none;" d="M63 72L64 73L63 72z"/>
<path style="fill:#71a7c9; stroke:none;" d="M138 72C138.684 73.58 138.805 73.7772 140 75C139.316 73.42 139.195 73.2228 138 72z"/>
<path style="fill:#84a3b8; stroke:none;" d="M47 73C48.506 73.683 49.3148 73.8259 51 74C49.494 73.317 48.6852 73.1741 47 73z"/>
<path style="fill:#aacdeb; stroke:none;" d="M51 73L51 76C51.6961 74.4463 51.6961 74.5537 51 73z"/>
<path style="fill:#c7eeff; stroke:none;" d="M75 73C77.3316 73.9845 79.4566 73.9813 82 74C79.6685 73.0155 77.5433 73.0187 75 73z"/>
<path style="fill:#6da5c6; stroke:none;" d="M147 73C147.003 77.9136 146.511 83.0224 151 86C149.702 81.779 148.693 76.9896 147 73z"/>
<path style="fill:#a8d1f1; stroke:none;" d="M265 73L266 74L265 73z"/>
<path style="fill:#efffff; stroke:none;" d="M69 82L89 82C88.4928 78.656 87.6013 77.1531 85 75L87 81L71 81C74.3384 75.412 77.8425 75.0048 84 75C77.4037 72.2321 70.1568 74.5294 69 82z"/>
<path style="fill:#c9e8fa; stroke:none;" d="M119 74C120.769 74.7789 122.036 74.9124 124 75C122.231 74.2211 120.964 74.0876 119 74z"/>
<path style="fill:#a8cee5; stroke:none;" d="M124 74C125.248 74.6848 125.548 74.7488 127 75C125.752 74.3152 125.452 74.2512 124 74z"/>
<path style="fill:#aedffd; stroke:none;" d="M177 74L178 75L177 74z"/>
<path style="fill:#b1daf6; stroke:none;" d="M245 74C247.332 74.9845 249.457 74.9813 252 75C249.668 74.0155 247.543 74.0187 245 74z"/>
<path style="fill:#80b7e0; stroke:none;" d="M42 75C44.8897 76.2129 47.8741 75.9983 51 76C48.1103 74.7871 45.1259 75.0017 42 75z"/>
<path style="fill:#fffeff; stroke:none;" d="M71 81L87 81C84.4134 72.5741 74.1188 73.2109 71 81z"/>
<path style="fill:#badffa; stroke:none;" d="M146 75L146 80C146.83 77.9695 146.83 77.0305 146 75z"/>
<path style="fill:#ffffff; stroke:none;" d="M243.094 75.858C231.394 81.0466 239.136 102.879 252.956 97.2577C265.711 92.0696 257.208 69.599 243.094 75.858z"/>
<path style="fill:#a8cfec; stroke:none;" d="M129 76L130 77L129 76z"/>
<path style="fill:#95c3e5; stroke:none;" d="M155 76L155 79C155.696 77.4463 155.696 77.5537 155 76z"/>
<path style="fill:#a5d3ed; stroke:none;" d="M241 76L242 77L241 76z"/>
<path style="fill:#aad7f6; stroke:none;" d="M130 77L131 78L130 77z"/>
<path style="fill:#6eaace; stroke:none;" d="M141 77C138.417 80.9645 134.939 79.2262 131 78C133.694 81.7358 137.721 80.9995 142 81C141.826 79.3148 141.683 78.506 141 77z"/>
<path style="fill:#8fc4e6; stroke:none;" d="M169 77C171.89 78.2129 174.874 77.9983 178 78C175.11 76.787 172.126 77.0017 169 77z"/>
<path style="fill:#b7dbf1; stroke:none;" d="M59.3333 79.6667C59.2778 79.7222 59.2222 80.7778 59.6667 80.3333C59.7223 80.2777 59.7778 79.2222 59.3333 79.6667z"/>
<path style="fill:#6da9cb; stroke:none;" d="M111 79L111 90C112.416 86.6338 112.327 82.6273 113 79L111 79z"/>
<path style="fill:#a3d1e9; stroke:none;" d="M113 79L114 80L113 79z"/>
<path style="fill:#aeddf7; stroke:none;" d="M42 80C44.8897 81.2129 47.8741 80.9983 51 81C48.1103 79.7871 45.1259 80.0017 42 80z"/>
<path style="fill:#baced9; stroke:none;" d="M142 80L143 81L142 80z"/>
<path style="fill:#a6cee8; stroke:none;" d="M268 80L268 83C268.696 81.4463 268.696 81.5537 268 80z"/>
<path style="fill:#65a5cb; stroke:none;" d="M42 81L42 83L51 83L51 81L42 81z"/>
<path style="fill:#8fc7e2; stroke:none;" d="M51 81C48.1963 83.1247 45.4665 82.9885 42 83C44.3497 84.1347 52.6757 85.4451 51 81z"/>
<path style="fill:#99d0ee; stroke:none;" d="M68 81C71.7096 85.2452 83.5939 83 89 83C82.7011 80.3568 74.7456 82.606 68 81z"/>
<path style="fill:#c5e7ff; stroke:none;" d="M112.333 81.6667C112.278 81.7222 112.222 82.7778 112.667 82.3333C112.722 82.2778 112.778 81.2222 112.333 81.6667z"/>
<path style="fill:#ddffff; stroke:none;" d="M132 81C135.163 82.3274 138.586 81.9996 142 82C138.837 80.6726 135.414 81.0004 132 81z"/>
<path style="fill:#86b3d2; stroke:none;" d="M158 81C159.769 81.7789 161.036 81.9124 163 82C161.231 81.2211 159.964 81.0876 158 81z"/>
<path style="fill:#a9cde3; stroke:none;" d="M98.3333 82.6667C98.2778 82.7222 98.2222 83.7778 98.6667 83.3333C98.7222 83.2778 98.7778 82.2222 98.3333 82.6667z"/>
<path style="fill:#a7d4f1; stroke:none;" d="M167.667 82.3333C167.222 82.7777 168.278 82.7222 168.333 82.6667C168.778 82.2222 167.722 82.2778 167.667 82.3333z"/>
<path style="fill:#cde8f9; stroke:none;" d="M171.667 83.3333C171.222 83.7777 172.278 83.7222 172.333 83.6667C172.778 83.2222 171.722 83.2778 171.667 83.3333z"/>
<path style="fill:#c5edff; stroke:none;" d="M237 83L237 90C238.059 87.4657 238.059 85.5343 237 83z"/>
<path style="fill:#80afcb; stroke:none;" d="M268 83L268 92C269.256 89.0059 269.256 85.9941 268 83z"/>
<path style="fill:#b1e1f8; stroke:none;" d="M58 84L58 91C59.0595 88.4657 59.0595 86.5343 58 84z"/>
<path style="fill:#6ba5ca; stroke:none;" d="M98 84L98 88L68 88C76.3668 91.5108 89.9239 89 99 89C98.9124 87.0359 98.7789 85.7691 98 84z"/>
<path style="fill:#68a7d3; stroke:none;" d="M152 87C156.846 89.9598 163.48 90.7375 169 92C164.712 88.2667 157.594 87.1309 152 87z"/>
<path style="fill:#a1c8d9; stroke:none;" d="M51 88L51 91C51.6961 89.4463 51.6961 89.5537 51 88z"/>
<path style="fill:#d1f7ff; stroke:none;" d="M68 92C76.1974 87.4412 89.7996 90 99 90C93.4323 86.7921 81.534 89 75 89C71.6097 89 68.7972 88.2799 68 92z"/>
<path style="fill:#bae3f9; stroke:none;" d="M112 89L112 92C112.696 90.4463 112.696 90.5537 112 89z"/>
<path style="fill:#c8f5ff; stroke:none;" d="M42 91C45.1633 92.3274 48.5856 91.9996 52 92C48.8367 90.6726 45.4144 91.0004 42 91z"/>
<path style="fill:#ebffff; stroke:none;" d="M130 95C134.017 92.2863 137.229 92.0037 142 92C137.697 90.1943 131.653 90.0198 130 95z"/>
<path style="fill:#cae7f7; stroke:none;" d="M59.3333 92.6667C59.2778 92.7222 59.2222 93.7778 59.6667 93.3333C59.7223 93.2777 59.7778 92.2222 59.3333 92.6667z"/>
<path style="fill:#c9e6f8; stroke:none;" d="M142.333 92.6667C142.278 92.7222 142.222 93.7778 142.667 93.3333C142.722 93.2778 142.778 92.2222 142.333 92.6667z"/>
<path style="fill:#62a7ce; stroke:none;" d="M169 92C168.904 97.9659 165.622 99.8174 160 100C165.193 102.173 175.12 97.3833 169 92z"/>
<path style="fill:#d1f2ff; stroke:none;" d="M179 92L179 96C179.71 94.2405 179.71 93.7595 179 92z"/>
<path style="fill:#8eb4c9; stroke:none;" d="M103.333 93.6667C103.278 93.7222 103.222 94.7778 103.667 94.3333C103.722 94.2778 103.778 93.2222 103.333 93.6667z"/>
<path style="fill:#99c0dd; stroke:none;" d="M209.333 93.6667C209.278 93.7222 209.222 94.7778 209.667 94.3333C209.722 94.2778 209.778 93.2222 209.333 93.6667z"/>
<path style="fill:#a4d4eb; stroke:none;" d="M69 94L70 95L69 94z"/>
<path style="fill:#85bbdf; stroke:none;" d="M89 94C91.8017 95.1901 94.5157 95.1139 97 97C98.5413 92.9113 91.6161 94 89 94z"/>
<path style="fill:#60a8ce; stroke:none;" d="M104 94C105.137 98.7807 107.56 101.884 112 104C109.762 100.381 106.974 97.0431 104 94z"/>
<path style="fill:#b3e2ff; stroke:none;" d="M146 94C148.89 95.2129 151.874 94.9983 155 95C152.11 93.787 149.126 94.0017 146 94z"/>
<path style="fill:#d3e9fe; stroke:none;" d="M42 95C44.8897 96.2129 47.8741 95.9983 51 96C48.1103 94.7871 45.1259 95.0017 42 95z"/>
<path style="fill:#a3d2ee; stroke:none;" d="M88 95L89 96L88 95z"/>
<path style="fill:#a7cce9; stroke:none;" d="M130 95L131 96L130 95z"/>
<path style="fill:#b0d2ed; stroke:none;" d="M208 95L209 96L208 95z"/>
<path style="fill:#6ea7c5; stroke:none;" d="M50 96C47.4401 97.9418 45.1922 97.965 42 98C44.3109 99.1159 51.6122 100.277 50 96z"/>
<path style="fill:#a4cee6; stroke:none;" d="M51 96L51 99C51.6961 97.4463 51.6961 97.5537 51 96z"/>
<path style="fill:#9acef6; stroke:none;" d="M129 96L130 97L129 96z"/>
<path style="fill:#afdafa; stroke:none;" d="M207 96L208 97L207 96z"/>
<path style="fill:#a5d2f3; stroke:none;" d="M241 96L242 97L241 96z"/>
<path style="fill:#a6d3ea; stroke:none;" d="M105 98L106 99L105 98z"/>
<path style="fill:#a6d8f9; stroke:none;" d="M119 98C120.769 98.7789 122.036 98.9124 124 99C122.231 98.2211 120.964 98.0876 119 98z"/>
<path style="fill:#89bde2; stroke:none;" d="M124 98C125.248 98.6848 125.548 98.7488 127 99C125.752 98.3152 125.452 98.2512 124 98z"/>
<path style="fill:#91c4e1; stroke:none;" d="M199 98C201.052 98.8743 202.747 98.9528 205 99C202.948 98.1257 201.253 98.0472 199 98z"/>
<path style="fill:#bee7ff; stroke:none;" d="M245 98C246.506 98.683 247.315 98.8259 249 99C247.494 98.317 246.685 98.1741 245 98z"/>
<path style="fill:#97ccee; stroke:none;" d="M249 98C250.248 98.6848 250.548 98.7488 252 99C250.752 98.3152 250.452 98.2512 249 98z"/>
<path style="fill:#e2ffff; stroke:none;" d="M42 99C42.3067 101.123 42.3821 101.686 44 103L43 100L52 100C48.8367 98.6726 45.4144 99.0004 42 99z"/>
<path style="fill:#c2e6fc; stroke:none;" d="M75 99C77.0521 99.8742 78.7472 99.9528 81 100C78.9479 99.1257 77.2528 99.0472 75 99z"/>
<path style="fill:#9bd0ef; stroke:none;" d="M81.6667 99.3333C81.2222 99.7778 82.2778 99.7222 82.3333 99.6667C82.7778 99.2222 81.7222 99.2778 81.6667 99.3333z"/>
<path style="fill:#a7d5ed; stroke:none;" d="M139 99L140 100L139 99z"/>
<path style="fill:#88badb; stroke:none;" d="M157.667 99.3333C157.222 99.7777 158.278 99.7223 158.333 99.6667C158.778 99.2222 157.722 99.2778 157.667 99.3333z"/>
<path style="fill:#b7d9f5; stroke:none;" d="M164 99C165.248 99.6848 165.548 99.7488 167 100C165.752 99.3152 165.452 99.2512 164 99z"/>
<path style="fill:#94ccf1; stroke:none;" d="M237.667 101.333C237.222 101.778 238.278 101.722 238.333 101.667C238.778 101.222 237.722 101.278 237.667 101.333z"/>
<path style="fill:#b8e4fd; stroke:none;" d="M237 102L237 124C239.219 118.713 239.219 107.287 237 102z"/>
<path style="fill:#b5d8ee; stroke:none;" d="M42 103C44.8897 104.213 47.8741 103.998 51 104C48.1103 102.787 45.1259 103.002 42 103z"/>
<path style="fill:#abd5ed; stroke:none;" d="M66 103L67 104L66 103z"/>
<path style="fill:#a1cadc; stroke:none;" d="M135 103L136 104L135 103z"/>
<path style="fill:#66a1c3; stroke:none;" d="M169 105C171.462 105.697 172.665 105.11 175 104C172.63 103.411 171.293 104.045 169 105z"/>
<path style="fill:#a8cae3; stroke:none;" d="M51 104C46.9226 107.089 40.9453 106 36 106C38.7175 107.312 52.8135 108.811 51 104z"/>
<path style="fill:#a1d2f3; stroke:none;" d="M113 105L114 106L113 105z"/>
<path style="fill:#68a5d1; stroke:none;" d="M114 105C119.006 108.42 126.324 107.054 132 106C127.263 104.301 119.273 105.226 114 105z"/>
<path style="fill:#afd6f3; stroke:none;" d="M242 105L243 106L242 105z"/>
<path style="fill:#69aaca; stroke:none;" d="M243 105C247.644 108.173 253.736 106.977 259 106C254.62 104.29 247.878 105.384 243 105z"/>
<path style="fill:#acdbf7; stroke:none;" d="M71.6667 106.333C71.2222 106.778 72.2778 106.722 72.3333 106.667C72.7778 106.222 71.7222 106.278 71.6667 106.333z"/>
<path style="fill:#68a7ca; stroke:none;" d="M160 106C162.89 107.213 165.874 106.998 169 107C166.11 105.787 163.126 106.002 160 106z"/>
<path style="fill:#9fcdef; stroke:none;" d="M192.667 106.333C192.222 106.778 193.278 106.722 193.333 106.667C193.778 106.222 192.722 106.278 192.667 106.333z"/>
<path style="fill:#a3cfea; stroke:none;" d="M211 106C213.89 107.213 216.874 106.998 220 107C217.11 105.787 214.126 106.002 211 106z"/>
<path style="fill:#a0d1ef; stroke:none;" d="M75 107C77.6127 108.098 80.1645 107.993 83 108C80.3873 106.902 77.8355 107.007 75 107z"/>
<path style="fill:#a6d2ef; stroke:none;" d="M119 107C121.332 107.985 123.457 107.981 126 108C123.668 107.015 121.543 107.019 119 107z"/>
<path style="fill:#a7d6f4; stroke:none;" d="M158 107C160.613 108.098 163.165 107.993 166 108C163.387 106.902 160.835 107.007 158 107z"/>
<path style="fill:#a6cfeb; stroke:none;" d="M195 107C197.052 107.874 198.747 107.953 201 108C198.948 107.126 197.253 107.047 195 107z"/>
<path style="fill:#a3d6eb; stroke:none;" d="M247 107C249.052 107.874 250.747 107.953 253 108C250.948 107.126 249.253 107.047 247 107z"/>
<path style="fill:#d3eaf8; stroke:none;" d="M228 124C230.89 125.213 233.874 124.998 237 125C234.11 123.787 231.126 124.002 228 124z"/>
<path style="fill:#fffeff; stroke:none;" d="M140 131C137.328 131.339 135.377 132.662 133 134C136.994 136.728 139.31 140.016 142 144C143.213 141.11 142.998 138.126 143 135L147 135C147.741 140.865 148.389 146.167 147 152C149.864 149.501 148.727 145.48 150.434 142.171C154.4 134.48 161.956 134.176 168 139C164.976 139.208 160.903 137.613 158.148 139.071C151.371 142.658 158.878 152.173 165 146L160 146C162.112 142.17 164.839 142.049 169 142C168.162 149.519 163.207 152.651 156 151C157.847 154.206 169.069 155.345 170 151C172.678 151.698 175.234 151.815 178 152C179.226 149.965 179.703 149.674 182 149L186 138L180 138C182.52 133.43 186.354 133.898 191 135C188.66 139.112 186.805 143.324 186 148L191 148C190.135 150.959 188.309 153.223 187 156L188 157C193.852 155.939 199.884 158.245 206 158L206 154L202 155C199.98 152.773 197.854 153.495 195 154C196.033 149.723 193.011 146.051 194.141 142.004C195.714 136.371 201.763 133.945 203 128C201.048 128.511 200.543 128.733 199 130C194.856 127.84 190.613 128.103 186 128L187 132L184 129C180.18 131.814 177.872 134.238 177 139L170 136L170 141C169.325 138.341 169.408 136.688 170 134C168.08 132.815 166.257 131.555 163.959 131.263C159.478 130.694 154.538 133.694 153 128C150.288 128.823 149.462 129.567 148 132C150.367 133.707 150.166 135.11 150 138C148.52 135.407 147.553 133.533 145 132L146 128C142.806 128.013 140.729 127.597 140 131z"/>
<path style="fill:#f1ffff; stroke:none;" d="M48 133L48 135L52 135L52 148L56 149C55.5943 146.908 55.7833 146.98 54 146C54.4697 141.727 54.0005 137.321 54 133L48 133z"/>
<path style="fill:#e9ffff; stroke:none;" d="M181 134C183.89 135.213 186.874 134.998 190 135C187.11 133.787 184.126 134.002 181 134M236 134C238.613 135.098 241.165 134.993 244 135C241.387 133.902 238.835 134.007 236 134z"/>
<path style="fill:#cbd8e9; stroke:none;" d="M47 135L47 152C48.8826 147.514 48.8826 139.486 47 135z"/>
<path style="fill:#66a3cf; stroke:none;" d="M48 135L48 152L55 152L55 149L51 149L51 135L48 135z"/>
<path style="fill:#d7ffff; stroke:none;" d="M51 135L51 149L55 149C53.7517 148.315 53.4516 148.251 52 148C52 143.737 52.6611 138.959 51 135z"/>
<path style="fill:#bfc5e5; stroke:none;" d="M59 135L59 152C60.8826 147.514 60.8826 139.486 59 135z"/>
<path style="fill:#70a1c1; stroke:none;" d="M60 137C62.7092 136.352 65.2155 136.058 68 136C65.0802 134.777 62.1633 134.524 60 137z"/>
<path style="fill:#56aad8; stroke:none;" d="M68 135C65.5819 135.722 63.5284 135.948 61 136L61 151L68 151C65.9479 150.126 64.2528 150.047 62 150C62.3352 145.606 63.5558 143.709 68 143C65.9479 142.126 64.2528 142.047 62 142L62 138C64.5347 137.99 69.3563 138.598 68 135z"/>
<path style="fill:#99b5cd; stroke:none;" d="M77.3333 135.667C77.2778 135.722 77.2222 136.778 77.6667 136.333C77.7222 136.278 77.7778 135.222 77.3333 135.667z"/>
<path style="fill:#5ea6d8; stroke:none;" d="M78 135C75.7653 140.681 73.9417 146.66 71 152L75 152C77.1119 148.17 79.8395 148.049 84 148L84 152L88 152C85.8531 146.465 84.1071 136.972 78 135z"/>
<path style="fill:#e8efff; stroke:none;" d="M90 135L90 152C91.8826 147.514 91.8826 139.486 90 135z"/>
<path style="fill:#8ca7c4; stroke:none;" d="M91 135L91 152C92.8826 147.514 92.8826 139.486 91 135z"/>
<path style="fill:#67a6d1; stroke:none;" d="M92 135L92 152L94 152L94 145C96.4243 148.352 97.7335 151.267 102 152C100.907 149.393 99.802 147.171 98 145C103.38 138.784 98.8259 135.165 92 135z"/>
<path style="fill:#e9f0fa; stroke:none;" d="M105 135L105 152C106.883 147.514 106.883 139.486 105 135z"/>
<path style="fill:#7fafd5; stroke:none;" d="M106 135C106 139.503 103.77 150.879 109 152C106.43 147.379 105.711 140.342 109 136C107.752 135.315 107.452 135.251 106 135z"/>
<path style="fill:#b4ccee; stroke:none;" d="M116 135C115.99 138.679 115.6 142.358 116 146C117.431 142.59 117.431 138.41 116 135z"/>
<path style="fill:#79a2ce; stroke:none;" d="M117 135L117 145C118.309 141.888 118.209 138.321 119 135L117 135z"/>
<path style="fill:#6db2d9; stroke:none;" d="M119 135L119 152C120.883 147.514 120.883 139.486 119 135z"/>
<path style="fill:#c4d9f4; stroke:none;" d="M124 135L124 152C125.883 147.514 125.883 139.486 124 135z"/>
<path style="fill:#779ec9; stroke:none;" d="M125 135C125 139.503 122.77 150.879 128 152C125.12 146.821 125.663 140.617 127 135L125 135z"/>
<path style="fill:#5eabd9; stroke:none;" d="M127 135C125.479 140.146 126 145.66 126 151L128 151C128 145.91 128.982 139.724 127 135z"/>
<path style="fill:#98b2c9; stroke:none;" d="M133 135L133 152C134.883 147.514 134.883 139.486 133 135z"/>
<path style="fill:#62a9d3; stroke:none;" d="M134 135L134 152L136 152L136 141C139.288 145.278 141.585 150.407 147 152L147 136C143.402 138.332 144.003 142.013 144 146C140.903 141.971 138.612 137.356 134 135z"/>
<path style="fill:#a4cede; stroke:none;" d="M136 135L137 136L136 135z"/>
<path style="fill:#d0d6ee; stroke:none;" d="M143 135C142.99 138.679 142.6 142.358 143 146C144.431 142.59 144.431 138.41 143 135z"/>
<path style="fill:#79a3bb; stroke:none;" d="M144 137L147 136C145.222 135.045 144.979 135.234 144 137z"/>
<path style="fill:#69a9cd; stroke:none;" d="M169 143C165.489 143 161.854 142.013 161 146L167 144C165.313 146.216 163.183 148.76 160.005 148.033C155.921 147.1 154.425 142.138 158.153 139.708C160.836 137.958 164.943 139.602 168 139C161.644 131.798 148.514 136.524 152.742 146.956C156.587 156.441 168.09 151.149 169 143z"/>
<path style="fill:#b5cfe8; stroke:none;" d="M180 135L180 138C180.696 136.446 180.696 136.554 180 135z"/>
<path style="fill:#75a0c0; stroke:none;" d="M181 138C184.33 136.16 187.327 136.417 191 136C187.873 134.198 181.895 133.825 181 138z"/>
<path style="fill:#67a8d2; stroke:none;" d="M200.04 135.667C189.664 138.804 194.884 154.187 204.995 151.562C215.572 148.816 210.762 132.426 200.04 135.667z"/>
<path style="fill:#91b4da; stroke:none;" d="M216 135L216 152C217.883 147.514 217.883 139.486 216 135z"/>
<path style="fill:#67aad5; stroke:none;" d="M217 135L217 152L219 152L219 141C222.218 145.188 224.439 151.046 230 152L230 135C227.526 138.266 228 142.01 228 146C224.476 143.009 222.048 139.134 220 135L217 135z"/>
<path style="fill:#c3dcfa; stroke:none;" d="M226 135C225.99 138.679 225.6 142.358 226 146C227.431 142.59 227.431 138.41 226 135z"/>
<path style="fill:#769fcd; stroke:none;" d="M227 135L227 146C228.429 142.596 228.134 138.636 229 135L227 135z"/>
<path style="fill:#e0fdff; stroke:none;" d="M230 135L230 152C231.883 147.514 231.883 139.486 230 135z"/>
<path style="fill:#99b1c9; stroke:none;" d="M235 135L235 152C236.883 147.514 236.883 139.486 235 135z"/>
<path style="fill:#63a8cf; stroke:none;" d="M236 135L236 152L244 152L244 149L238 149L238 144L244 144L244 141L238 141L238 138L244 138L244 135L236 135z"/>
<path style="fill:#a8d4ed; stroke:none;" d="M244 135L244 138C244.696 136.446 244.696 136.554 244 135z"/>
<path style="fill:#60a9dc; stroke:none;" d="M107 136L107 151L109 151C109.004 145.97 112.741 137.894 107 136z"/>
<path style="fill:#51b0e0; stroke:none;" d="M118 136C117.984 140.706 114.918 147.836 119 151C119 146.183 119.876 140.471 118 136z"/>
<path style="fill:#e2ffff; stroke:none;" d="M128 136L128 152C129.812 147.681 129.812 140.319 128 136z"/>
<path style="fill:#58a7df; stroke:none;" d="M182 136L182 138L190 138C187.44 136.058 185.192 136.035 182 136z"/>
<path style="fill:#bfdaef; stroke:none;" d="M197 136L198 137L197 136z"/>
<path style="fill:#66a5ce; stroke:none;" d="M60 137L60 152L69 152L69 149L63 149L63 144C62.1258 146.052 62.0472 147.747 62 150L68 150C65.5819 150.722 63.5284 150.948 61 151C61 146.459 61.7693 141.217 60 137z"/>
<path style="fill:#a9ccec; stroke:none;" d="M76.3333 137.667C76.2778 137.722 76.2222 138.778 76.6667 138.333C76.7222 138.278 76.7778 137.222 76.3333 137.667z"/>
<path style="fill:#6aa7d3; stroke:none;" d="M62 138L62 142L68 142C66.1994 142.562 64.8781 142.824 63 143C65.0521 143.874 66.7472 143.953 69 144L69 141C65.8926 140.769 64.2538 140.155 62 138z"/>
<path style="fill:#d3faff; stroke:none;" d="M63 138C63.6544 141.054 65.0066 140.936 68 141L64 139L65 138L63 138z"/>
<path style="fill:#a5d8f3; stroke:none;" d="M82 138L83 139L82 138z"/>
<path style="fill:#bde7ff; stroke:none;" d="M94 138L94 142L97 139C95.7516 138.315 95.4516 138.251 94 138z"/>
<path style="fill:#a9dff7; stroke:none;" d="M111 138L112 139L111 138z"/>
<path style="fill:#9cd1f1; stroke:none;" d="M138 138L139 139L138 138z"/>
<path style="fill:#d8ffff; stroke:none;" d="M147 138L147 151C148.591 147.209 148.591 141.791 147 138z"/>
<path style="fill:#6ca5d2; stroke:none;" d="M186 138C184.218 142.841 182.127 146.738 182 152L190 152L190 149L185 149C186.5 145.342 188.083 141.859 189 138L186 138z"/>
<path style="fill:#b7cce1; stroke:none;" d="M195 138L196 139L195 138z"/>
<path style="fill:#d9f6ff; stroke:none;" d="M201 138C202.506 138.683 203.315 138.826 205 139C203.494 138.317 202.685 138.174 201 138z"/>
<path style="fill:#9fd4f6; stroke:none;" d="M221 138L222 139L221 138z"/>
<path style="fill:#a4d6fb; stroke:none;" d="M238 138L238 141C238.696 139.446 238.696 139.554 238 138z"/>
<path style="fill:#e5ffff; stroke:none;" d="M79 139L78 145L81 145C80.7451 142.511 80.416 141.042 79 139z"/>
<path style="fill:#f0ffff; stroke:none;" d="M95 142C97.1236 141.101 97.1007 141.124 98 139C95.636 139.482 95.4825 139.636 95 142z"/>
<path style="fill:#63a7ce; stroke:none;" d="M111 139C110.76 144.313 113.78 150.277 119 152C116.244 147.528 114.931 142.643 111 139z"/>
<path style="fill:#fcffff; stroke:none;" d="M199.603 140.029C194.938 143.696 200.919 150.113 205.682 146.971C211.331 143.246 204.32 136.321 199.603 140.029z"/>
<path style="fill:#aec6e8; stroke:none;" d="M206 139L207 140L206 139z"/>
<path style="fill:#a5b8d8; stroke:none;" d="M75.3333 140.667C75.2778 140.722 75.2222 141.778 75.6667 141.333C75.7222 141.278 75.7778 140.222 75.3333 140.667z"/>
<path style="fill:#daf6ff; stroke:none;" d="M239 140C240.769 140.779 242.036 140.912 244 141C242.231 140.221 240.964 140.088 239 140z"/>
<path style="fill:#b4e6ff; stroke:none;" d="M109 141L109 152C110.424 148.615 110.847 144.194 109 141z"/>
<path style="fill:#acd4f7; stroke:none;" d="M136 141L136 152C137.424 148.615 137.847 144.194 136 141z"/>
<path style="fill:#9ccfec; stroke:none;" d="M140 141L141 142L140 141z"/>
<path style="fill:#b5c3dd; stroke:none;" d="M151 141L151 146C151.83 143.97 151.83 143.03 151 141z"/>
<path style="fill:#9bc0dd; stroke:none;" d="M184.333 141.667C184.278 141.722 184.222 142.778 184.667 142.333C184.722 142.278 184.778 141.222 184.333 141.667z"/>
<path style="fill:#cefaff; stroke:none;" d="M197 141L197 146C197.83 143.97 197.83 143.03 197 141z"/>
<path style="fill:#8ac8ed; stroke:none;" d="M211 141L211 146C211.83 143.97 211.83 143.03 211 141z"/>
<path style="fill:#99d9fd; stroke:none;" d="M219 141L219 152C220.424 148.615 220.847 144.194 219 141z"/>
<path style="fill:#acd1eb; stroke:none;" d="M244 141L244 144C244.696 142.446 244.696 142.554 244 141z"/>
<path style="fill:#abd1e4; stroke:none;" d="M100 142L101 143L100 142z"/>
<path style="fill:#dbfaff; stroke:none;" d="M161 142C163.613 143.098 166.164 142.993 169 143C166.387 141.902 163.835 142.007 161 142z"/>
<path style="fill:#dfeffc; stroke:none;" d="M193 142L193 146C193.71 144.241 193.71 143.759 193 142z"/>
<path style="fill:#9ec2e2; stroke:none;" d="M208 142L208 146C208.71 144.241 208.71 143.759 208 142z"/>
<path style="fill:#b0e4ff; stroke:none;" d="M77.3333 143.667C77.2778 143.722 77.2222 144.778 77.6667 144.333C77.7222 144.278 77.7778 143.222 77.3333 143.667z"/>
<path style="fill:#b1ddff; stroke:none;" d="M81.3333 143.667C81.2777 143.722 81.2222 144.778 81.6667 144.333C81.7222 144.278 81.7778 143.222 81.3333 143.667z"/>
<path style="fill:#cad6ee; stroke:none;" d="M160 143L160 146C160.696 144.446 160.696 144.554 160 143z"/>
<path style="fill:#5aabe0; stroke:none;" d="M163 144L163 146L167 146L167 144L163 144z"/>
<path style="fill:#aed6f0; stroke:none;" d="M238 144L238 149C238.83 146.97 238.83 146.03 238 144z"/>
<path style="fill:#edffff; stroke:none;" d="M239 144L239 149L244 149C242.778 147.267 241.991 146.849 240 146C241.479 145.014 241.203 145 243 145C241.494 144.317 240.685 144.174 239 144z"/>
<path style="fill:#badef8; stroke:none;" d="M94 145L94 152C95.2366 149.354 95.4586 147.526 94 145z"/>
<path style="fill:#a9c3e4; stroke:none;" d="M112 145L113 146L112 145z"/>
<path style="fill:#b3d0f0; stroke:none;" d="M222 145L223 146L222 145z"/>
<path style="fill:#89b0d1; stroke:none;" d="M73 146L72 150C73.303 148.332 73.553 148.008 73 146z"/>
<path style="fill:#afcae7; stroke:none;" d="M207 146L208 147L207 146z"/>
<path style="fill:#b0ceea; stroke:none;" d="M164 147L165 148L164 147z"/>
<path style="fill:#d4f9ff; stroke:none;" d="M185 147C186.734 149.003 188.355 148.923 191 149C189.059 148.049 187.102 147.561 185 147z"/>
<path style="fill:#b1cce9; stroke:none;" d="M206 147L207 148L206 147z"/>
<path style="fill:#bacae4; stroke:none;" d="M83.3333 148.667C83.2778 148.722 83.2222 149.778 83.6667 149.333C83.7222 149.278 83.7778 148.222 83.3333 148.667z"/>
<path style="fill:#bbcbed; stroke:none;" d="M195 148L196 149L195 148z"/>
<path style="fill:#d6f7ff; stroke:none;" d="M201 148C202.506 148.683 203.315 148.826 205 149C203.494 148.317 202.685 148.174 201 148z"/>
<path style="fill:#8dc5de; stroke:none;" d="M55 149L55 152C55.6961 150.446 55.6961 150.554 55 149z"/>
<path style="fill:#82a0c4; stroke:none;" d="M181 149L180 152C181.766 151.021 181.955 150.778 181 149z"/>
<path style="fill:#9bc6d7; stroke:none;" d="M190 149L190 152C190.696 150.446 190.696 150.554 190 149z"/>
<path style="fill:#a8c9e8; stroke:none;" d="M196 149L197 150L196 149z"/>
<path style="fill:#add0ec; stroke:none;" d="M244 149L244 152C244.696 150.446 244.696 150.554 244 149z"/>
<path style="fill:#b2c8dd; stroke:none;" d="M143 151L144 152L143 151z"/>
</svg>
